<svg width="94" height="30" viewBox="0 0 94 30" fill="none" xmlns="http://www.w3.org/2000/svg">
<path d="M85.9204 1H7.28408C7.04749 1 6.81301 1.00534 6.57327 1.00854C6.05447 1.01437 5.53666 1.05577 5.02336 1.13245C4.51541 1.20894 4.02013 1.35556 3.55126 1.56824C3.09633 1.77605 2.67457 2.05182 2.29998 2.38641C1.93675 2.70774 1.62866 3.08819 1.38833 3.51221C1.15535 3.92198 0.99184 4.36862 0.904637 4.83347C0.818654 5.29133 0.772211 5.75594 0.765839 6.22202C0.758478 6.43564 0.757427 6.64926 0.754272 6.86288V22.9102C0.754272 23.1239 0.754272 23.3375 0.765839 23.5511C0.772206 24.0172 0.818648 24.4818 0.904637 24.9397C0.991572 25.4049 1.15509 25.852 1.38833 26.262C1.62927 26.6846 1.93812 27.0633 2.30208 27.3824C2.67547 27.7186 3.09749 27.9946 3.55336 28.2006C4.02225 28.4137 4.51749 28.561 5.02546 28.6385C5.53886 28.7142 6.05663 28.7553 6.57537 28.7614C6.81406 28.7614 7.04959 28.7689 7.28618 28.7689H86.7584C86.994 28.7689 87.2358 28.7689 87.4714 28.7614C87.9891 28.7556 88.5058 28.7146 89.0181 28.6385C89.5259 28.56 90.0209 28.4127 90.4902 28.2006C90.9458 27.9946 91.3674 27.7186 91.7404 27.3824C92.1028 27.0617 92.4114 26.6833 92.6542 26.262C92.8856 25.8516 93.0473 25.4046 93.1326 24.9397C93.2186 24.4817 93.2664 24.0172 93.2756 23.5511C93.2756 23.3375 93.2756 23.1239 93.2756 22.9102C93.2893 22.6582 93.2893 22.4072 93.2893 22.1487V7.62231C93.2893 7.3681 93.2893 7.11603 93.283 6.86395C93.283 6.65033 93.283 6.43671 93.283 6.22308C93.2738 5.75698 93.226 5.29248 93.14 4.83453C93.0534 4.3695 92.8906 3.92253 92.6584 3.51221C92.1529 2.65158 91.3962 1.97215 90.4934 1.56824C90.0241 1.35657 89.529 1.20999 89.0213 1.13245C88.508 1.05567 87.9901 1.01463 87.4714 1.00961C87.2358 1.00961 86.994 1.00214 86.7584 1.00107H85.9172L85.9204 1Z" stroke="#414141"/>
<path d="M23.7444 14.8737C23.7521 14.2809 23.9076 13.6997 24.1963 13.1843C24.485 12.669 24.8974 12.2364 25.3953 11.9268C25.0784 11.4692 24.6612 11.0927 24.1765 10.8271C23.6918 10.5614 23.1529 10.4139 22.6025 10.3962C21.4258 10.2712 20.2892 11.1097 19.6856 11.1097C19.082 11.1097 18.1515 10.409 17.162 10.4293C16.5196 10.4501 15.8935 10.6394 15.3444 10.9787C14.7953 11.318 14.342 11.7959 14.0285 12.3658C12.6731 14.7423 13.6847 18.2351 14.9822 20.1556C15.6321 21.0966 16.3902 22.1465 17.3839 22.1091C18.3555 22.0685 18.7182 21.4811 19.8917 21.4811C21.0652 21.4811 21.3943 22.1091 22.4079 22.0856C23.451 22.0685 24.1082 21.1404 24.7339 20.1908C25.2004 19.5208 25.5596 18.78 25.798 17.9958C25.1928 17.7372 24.676 17.3031 24.3123 16.7478C23.9485 16.1925 23.7539 15.5407 23.7528 14.8737H23.7444Z" fill="#414141"/>
<path d="M21.8274 8.94894C22.3959 8.25839 22.6763 7.36954 22.6087 6.47198C21.7411 6.56339 20.939 6.98277 20.3616 7.64691C20.0801 7.97131 19.8644 8.34899 19.7269 8.75829C19.5894 9.16759 19.5328 9.60045 19.5604 10.032C19.9942 10.037 20.4235 9.94209 20.8162 9.75452C21.2088 9.56695 21.5545 9.29155 21.8274 8.94894Z" fill="#414141"/>
<path d="M35.4033 13.4499H32.2141L31.4486 15.741H30.0974L33.1184 7.2666H34.5221L37.5431 15.741H36.1688L35.4033 13.4499ZM32.5442 12.3925H35.0678L33.8218 8.67438H33.7871L32.5442 12.3925Z" fill="#414141"/>
<path d="M44.0665 12.7087C44.0665 14.6313 43.0518 15.8628 41.5208 15.8628C41.1334 15.8835 40.748 15.7931 40.4087 15.602C40.0694 15.4108 39.7898 15.1267 39.6018 14.7819H39.5724V17.842H38.3201V9.61753H39.5324V10.6451H39.5556C39.752 10.3018 40.0363 10.019 40.3783 9.8266C40.7202 9.63422 41.107 9.53946 41.4977 9.55237C43.0423 9.55451 44.0665 10.7946 44.0665 12.7087ZM42.7795 12.7087C42.7795 11.4579 42.1412 10.6354 41.1675 10.6354C40.2107 10.6354 39.5671 11.475 39.5671 12.7087C39.5671 13.9423 40.2107 14.7872 41.1675 14.7872C42.1412 14.7872 42.7795 13.9712 42.7795 12.7087Z" fill="#414141"/>
<path d="M50.7804 12.7087C50.7804 14.6313 49.7657 15.8628 48.2347 15.8628C47.8473 15.8835 47.4619 15.7931 47.1226 15.602C46.7833 15.4108 46.5037 15.1267 46.3158 14.7819H46.2863V17.842H45.0382V9.61753H46.2506V10.6451H46.2737C46.4702 10.3018 46.7545 10.019 47.0964 9.8266C47.4383 9.63422 47.8252 9.53946 48.2158 9.55237C49.7594 9.55451 50.7804 10.7946 50.7804 12.7087ZM49.4934 12.7087C49.4934 11.4579 48.8551 10.6354 47.8814 10.6354C46.9246 10.6354 46.2811 11.475 46.2811 12.7087C46.2811 13.9423 46.9246 14.7872 47.8814 14.7872C48.8551 14.7883 49.4934 13.9712 49.4934 12.7087Z" fill="#414141"/>
<path d="M55.2177 13.3805C55.3103 14.2211 56.1168 14.769 57.2156 14.769C58.2671 14.769 59.0305 14.2168 59.0305 13.4595C59.0305 12.8015 58.5731 12.4074 57.489 12.1382L56.4049 11.8734C54.8686 11.4974 54.1557 10.77 54.1557 9.58866C54.1557 8.12641 55.4175 7.12238 57.1998 7.12238C58.9684 7.12238 60.1808 8.12641 60.2208 9.58866H58.959C58.8833 8.74271 58.1935 8.23215 57.184 8.23215C56.1746 8.23215 55.4848 8.74912 55.4848 9.5C55.4848 10.0992 55.9254 10.4517 57.0042 10.7219L57.9264 10.9516C59.6435 11.3628 60.3553 12.0613 60.3553 13.3014C60.3553 14.8865 59.1093 15.8799 57.1262 15.8799C55.2703 15.8799 54.018 14.91 53.937 13.3773L55.2177 13.3805Z" fill="#414141"/>
<path d="M63.0576 8.10297V9.56522H64.2142V10.5692H63.0576V13.9776C63.0576 14.5117 63.2899 14.7531 63.7999 14.7531C63.9377 14.7508 64.0753 14.7412 64.2121 14.7242V15.7229C63.983 15.7663 63.7501 15.786 63.5171 15.7816C62.2826 15.7816 61.8 15.3117 61.8 14.1133V10.5746H60.9136V9.57056H61.8V8.10297H63.0576Z" fill="#414141"/>
<path d="M64.8884 12.6713C64.856 12.2656 64.9068 11.8575 65.0374 11.4727C65.1681 11.0879 65.3758 10.7348 65.6475 10.4356C65.9191 10.1364 66.2489 9.89756 66.6159 9.73423C66.9829 9.5709 67.3793 9.48657 67.78 9.48657C68.1807 9.48657 68.5771 9.5709 68.9441 9.73423C69.3111 9.89756 69.6409 10.1364 69.9125 10.4356C70.1842 10.7348 70.3919 11.0879 70.5226 11.4727C70.6532 11.8575 70.704 12.2656 70.6716 12.6713C70.704 13.077 70.6532 13.4852 70.5226 13.87C70.3919 14.2548 70.1842 14.6079 69.9125 14.9071C69.6409 15.2063 69.3111 15.4451 68.9441 15.6084C68.5771 15.7718 68.1807 15.8561 67.78 15.8561C67.3793 15.8561 66.9829 15.7718 66.6159 15.6084C66.2489 15.4451 65.9191 15.2063 65.6475 14.9071C65.3758 14.6079 65.1681 14.2548 65.0374 13.87C64.9068 13.4852 64.856 13.077 64.8884 12.6713ZM69.3993 12.6713C69.3993 11.3373 68.7957 10.5511 67.781 10.5511C66.7664 10.5511 66.1628 11.3447 66.1628 12.6713C66.1628 13.9979 66.7664 14.7915 67.781 14.7915C68.7957 14.7915 69.3993 14.0108 69.3993 12.6713Z" fill="#414141"/>
<path d="M71.7073 9.58122H72.9018V10.6333H72.9312C73.0127 10.3036 73.2036 10.0126 73.4718 9.80922C73.74 9.60589 74.069 9.50273 74.4033 9.51714C74.5476 9.51652 74.6915 9.53228 74.8323 9.56413V10.7508C74.6501 10.6944 74.4601 10.6684 74.2698 10.6739C74.0882 10.6665 73.9072 10.699 73.7392 10.7691C73.5712 10.8393 73.42 10.9455 73.2961 11.0805C73.1722 11.2155 73.0785 11.3761 73.0213 11.5513C72.9641 11.7265 72.9449 11.9121 72.9649 12.0956V15.7603H71.7125L71.7073 9.58122Z" fill="#414141"/>
<path d="M80.5998 13.9456C80.4614 14.5307 80.1186 15.045 79.6352 15.3928C79.1517 15.7407 78.5604 15.8986 77.9711 15.8372C77.5703 15.8552 77.1705 15.7846 76.7992 15.6303C76.4279 15.476 76.094 15.2417 75.8205 14.9435C75.5471 14.6454 75.3406 14.2904 75.2154 13.9033C75.0902 13.5162 75.0492 13.106 75.0952 12.7012C75.0952 10.7626 76.2025 9.50648 77.9185 9.50648C78.3047 9.49383 78.6891 9.56611 79.0452 9.71839C79.4014 9.87068 79.7209 10.0994 79.9819 10.3888C80.243 10.6782 80.4394 11.0215 80.5576 11.3952C80.6759 11.7689 80.7132 12.1641 80.6671 12.5538V12.9885H76.356V13.0654C76.3366 13.2932 76.3651 13.5225 76.4396 13.7383C76.5141 13.954 76.6329 14.1512 76.7881 14.3167C76.9433 14.4822 77.1314 14.6124 77.3399 14.6985C77.5483 14.7846 77.7725 14.8247 77.9974 14.8161C78.2929 14.8443 78.5895 14.775 78.8432 14.6183C79.0968 14.4617 79.294 14.2261 79.4053 13.9466L80.5998 13.9456ZM76.3675 12.1009H79.4169C79.4276 11.8962 79.3967 11.6915 79.3259 11.4995C79.2552 11.3075 79.1461 11.1324 79.0057 10.9852C78.8652 10.838 78.6963 10.7218 78.5096 10.644C78.3229 10.5662 78.1224 10.5284 77.9206 10.5329C77.7169 10.5312 77.515 10.5706 77.3263 10.6486C77.1377 10.7267 76.9662 10.842 76.8217 10.9878C76.6772 11.1336 76.5625 11.307 76.4844 11.4981C76.4063 11.6891 76.3662 11.894 76.3665 12.1009H76.3675Z" fill="#414141"/>
<path d="M32.7346 23.9117L32.2361 22.6481H30.6494L30.1847 23.9117H29.6726L31.2446 19.809H31.702L33.254 23.9117H32.7346ZM32.1037 22.1898L31.6463 20.9466L31.4549 20.3356C31.4002 20.5578 31.3497 20.7628 31.2835 20.9466L30.8261 22.1898H32.1037Z" fill="#414141"/>
<path d="M36.5547 21.0241C36.5659 21.2069 36.5335 21.3897 36.4602 21.557C36.387 21.7244 36.2751 21.8713 36.1341 21.9854C35.7874 22.2273 35.371 22.3446 34.9512 22.3186H34.4864V23.9091H33.9785V19.8224H35.0447C36.05 19.8224 36.5547 20.2251 36.5547 21.0241ZM34.5043 21.8786H34.907C35.2111 21.9033 35.5157 21.8357 35.7818 21.6842C35.8735 21.6087 35.9457 21.5117 35.992 21.4015C36.0384 21.2913 36.0576 21.1713 36.0479 21.0518C36.0557 20.9402 36.0369 20.8283 35.9929 20.7256C35.949 20.6229 35.8813 20.5326 35.7955 20.4622C35.5515 20.2994 35.2592 20.2284 34.969 20.2614H34.4517L34.5043 21.8786Z" fill="#414141"/>
<path d="M40.0489 23.4507H40.5683V24.9856H40.0836V23.9111H39.7587L38.3192 21.9554L37.9091 22.3239V23.9068H37.4033V19.8192H37.9091V21.8251L38.2582 21.4363L39.6935 19.8042H40.2844L38.6851 21.588L40.0489 23.4507Z" fill="#414141"/>
<path d="M43.9436 22.717C43.9531 22.8824 43.9254 23.0479 43.8626 23.2008C43.7997 23.3536 43.7034 23.4899 43.5808 23.5993C43.2662 23.8357 42.8771 23.9466 42.4873 23.9112H41.3264V19.8224H41.8395V21.5507H42.4831C42.8769 21.5239 43.2689 21.6257 43.6019 21.8412C43.7233 21.9488 43.8177 22.0843 43.8771 22.2365C43.9366 22.3887 43.9594 22.5531 43.9436 22.716V22.717ZM41.8406 23.4733H42.4831C42.7246 23.4847 42.9637 23.419 43.1665 23.2853C43.2447 23.2143 43.3057 23.1261 43.3449 23.0274C43.3841 22.9287 43.4004 22.8221 43.3926 22.716C43.4015 22.6121 43.385 22.5076 43.3444 22.4118C43.3039 22.316 43.2406 22.2319 43.1602 22.167C42.9191 22.0374 42.6468 21.9797 42.3748 22.0003H41.8143L41.8406 23.4733ZM45.074 23.9112H44.5408V19.8224H45.0466L45.074 23.9112Z" fill="#414141"/>
<path d="M49.2326 23.9112H48.7269V20.2732H47.4493L47.3673 20.9675C47.2716 21.8284 47.1486 22.5227 47.0666 22.9115C47.0176 23.2123 46.9006 23.4975 46.7248 23.7446C46.6519 23.822 46.5634 23.8825 46.4655 23.9221C46.3675 23.9617 46.2623 23.9795 46.157 23.9742C46.033 23.9772 45.9097 23.9535 45.7953 23.9048V23.4776C45.8909 23.5246 45.9961 23.5484 46.1023 23.547C46.2527 23.547 46.362 23.4573 46.4514 23.2693C46.5874 22.8612 46.6815 22.4399 46.7322 22.0121C46.8279 21.3178 46.9299 20.6236 47.0329 19.8257H49.2337L49.2326 23.9112Z" fill="#414141"/>
<path d="M52.9864 22.717C52.996 22.8823 52.9684 23.0477 52.9058 23.2006C52.8431 23.3534 52.747 23.4898 52.6247 23.5993C52.3162 23.827 51.9389 23.9374 51.5585 23.9112H50.3682V19.8224H50.8739V21.5507H51.4933C51.8822 21.5197 52.2705 21.6171 52.6005 21.8284C52.7314 21.933 52.8348 22.0689 52.9016 22.2239C52.9684 22.379 52.9964 22.5484 52.9832 22.717H52.9864ZM50.875 23.4733H51.5059C51.7476 23.487 51.9872 23.4215 52.1894 23.2863C52.2686 23.216 52.3308 23.1281 52.3711 23.0293C52.4115 22.9306 52.4288 22.8237 52.4217 22.717C52.4291 22.6127 52.4112 22.5081 52.3696 22.4124C52.328 22.3167 52.2639 22.2328 52.1831 22.168C51.9445 22.0375 51.674 21.9796 51.4039 22.0014H50.8361L50.875 23.4733ZM54.1073 23.9112H53.5963V19.8224H54.1083L54.1073 23.9112Z" fill="#414141"/>
<path d="M57.7486 21.8294L56.1566 19.8224H56.7171L58.2828 21.8284V19.8224H58.7749V21.8284L60.3122 19.8492H60.8726L59.3111 21.8294L60.9378 23.9123H60.3626L58.7854 21.8294V23.9123H58.2933V21.8294L56.716 23.9123H56.1566L57.7486 21.8294Z" fill="#414141"/>
<path d="M62.9306 21.8283L63.9758 19.8149H64.5225L63.1556 22.3218V23.9112H62.6435V22.3485L61.2766 19.8214H61.8297L62.9306 21.8283Z" fill="#414141"/>
<path d="M68.1732 23.9112H67.5654L65.7263 21.8284V23.9112H65.2206V19.8224H65.7263V21.8284L67.4971 19.8492H68.0775L66.3488 21.8284L68.1732 23.9112Z" fill="#414141"/>
<path d="M70.3604 23.9112H69.8273V20.2732H68.597V19.8224H71.6117V20.2732H70.3604V23.9112Z" fill="#414141"/>
<path d="M74.6104 23.9112H72.3623V19.8224H74.6104V20.2732H72.867V21.5549H74.5073V21.9993H72.867V23.4647H74.6104V23.9112Z" fill="#414141"/>
<path d="M78.5893 23.454H79.0677V24.9879H78.5893V23.9112H78.0835V22.0025H76.0331V23.9123H75.5273V19.8224H76.0331V21.5507H78.0835V19.8224H78.5893V23.454Z" fill="#414141"/>
<path d="M81.1455 23.9112H79.6965V23.6132L80.1686 23.5064V20.2315L79.6965 20.1247V19.8224H81.1455V20.1205L80.6734 20.2273V23.5042L81.1455 23.6111V23.9112Z" fill="#414141"/>
<path d="M84.5208 20.7805C84.5248 20.8994 84.5044 21.0178 84.4607 21.1281C84.4171 21.2385 84.3512 21.3384 84.2674 21.4214C84.0805 21.6025 83.8406 21.7169 83.5839 21.7472C83.8685 21.7716 84.1384 21.8859 84.3558 22.074C84.4419 22.1581 84.5095 22.2597 84.5543 22.3721C84.599 22.4846 84.6199 22.6054 84.6155 22.7266C84.6235 22.8995 84.5893 23.0717 84.5159 23.2279C84.4425 23.3841 84.3322 23.5194 84.1949 23.6217C83.8404 23.8558 83.4213 23.9681 82.9993 23.9422C82.5961 23.9571 82.1947 23.8813 81.8237 23.72V23.2554C82.0117 23.3429 82.2089 23.4081 82.4115 23.4498C82.6021 23.4953 82.7972 23.5186 82.993 23.5192C83.2802 23.5378 83.5662 23.4674 83.8132 23.3173C83.9041 23.2501 83.9773 23.1611 84.0263 23.0583C84.0753 22.9554 84.0985 22.8419 84.0939 22.7277C84.0963 22.6147 84.0682 22.5032 84.0126 22.4052C83.957 22.3073 83.876 22.2267 83.7785 22.1723C83.4898 22.0291 83.1696 21.9643 82.8489 21.9843H82.2748V21.5571H82.8216C83.1327 21.5767 83.4428 21.5068 83.7164 21.3552C83.8074 21.2969 83.8822 21.216 83.9338 21.1201C83.9853 21.0242 84.0118 20.9165 84.0109 20.8072C84.0137 20.7175 83.9953 20.6284 83.9572 20.5474C83.9192 20.4664 83.8626 20.3958 83.7922 20.3415C83.6193 20.216 83.4091 20.1549 83.197 20.1685C83.0074 20.1636 82.8182 20.1892 82.6365 20.2443C82.4398 20.3061 82.2534 20.3975 82.0835 20.5156L81.8374 20.1685C82.2362 19.881 82.7154 19.7313 83.2044 19.7413C83.5505 19.7213 83.8937 19.8161 84.1823 20.0115C84.2979 20.1004 84.3895 20.2175 84.4487 20.3519C84.5079 20.4863 84.5327 20.6338 84.5208 20.7805Z" fill="#414141"/>
</svg>
