<svg width="94" height="30" viewBox="0 0 94 30" fill="none" xmlns="http://www.w3.org/2000/svg">
<path d="M87.985 1H5.96807C3.06443 1 0.710571 3.39106 0.710571 6.34058V23.4304C0.710571 26.3799 3.06443 28.771 5.96807 28.771H87.985C90.8886 28.771 93.2425 26.3799 93.2425 23.4304V6.34058C93.2425 3.39106 90.8886 1 87.985 1Z" stroke="#414141"/>
<path d="M44.9451 9.87924C44.4428 9.88198 43.9526 10.0358 43.5363 10.3212C43.12 10.6067 42.7962 11.011 42.6059 11.4832C42.4155 11.9553 42.3671 12.4742 42.4668 12.9743C42.5664 13.4743 42.8096 13.9332 43.1657 14.293C43.5219 14.6529 43.9749 14.8975 44.4677 14.996C44.9606 15.0945 45.4711 15.0426 45.9349 14.8467C46.3987 14.6508 46.7949 14.3198 47.0737 13.8954C47.3525 13.4709 47.5013 12.9722 47.5013 12.4619C47.506 12.1203 47.443 11.7811 47.316 11.4647C47.1891 11.1483 47.0007 10.861 46.7622 10.6201C46.5237 10.3791 46.24 10.1893 45.9278 10.0621C45.6156 9.93479 45.2814 9.87262 44.9451 9.87924ZM44.9451 14.0449C44.7502 14.0393 44.5583 13.9944 44.3806 13.9128C44.203 13.8312 44.043 13.7146 43.9101 13.5697C43.7771 13.4248 43.6738 13.2546 43.6062 13.0688C43.5386 12.883 43.5079 12.6855 43.5161 12.4876C43.502 12.2878 43.5285 12.0873 43.5941 11.8984C43.6596 11.7096 43.7628 11.5364 43.8971 11.3899C44.0314 11.2433 44.194 11.1264 44.3748 11.0464C44.5555 10.9665 44.7506 10.9253 44.9477 10.9253C45.1449 10.9253 45.3399 10.9665 45.5206 11.0464C45.7014 11.1264 45.864 11.2433 45.9983 11.3899C46.1326 11.5364 46.2358 11.7096 46.3013 11.8984C46.3669 12.0873 46.3934 12.2878 46.3793 12.4876C46.3854 12.6847 46.3529 12.881 46.284 13.0654C46.215 13.2497 46.1108 13.4183 45.9774 13.5616C45.844 13.7048 45.684 13.8199 45.5066 13.9001C45.3293 13.9803 45.1381 14.024 44.944 14.0289L44.9451 14.0449ZM39.3816 9.87924C38.8793 9.88198 38.3891 10.0358 37.9728 10.3212C37.5565 10.6067 37.2327 11.011 37.0424 11.4832C36.852 11.9553 36.8036 12.4742 36.9033 12.9743C37.0029 13.4743 37.2461 13.9332 37.6023 14.293C37.9584 14.6529 38.4114 14.8975 38.9043 14.996C39.3971 15.0945 39.9076 15.0426 40.3714 14.8467C40.8352 14.6508 41.2315 14.3198 41.5102 13.8954C41.789 13.4709 41.9378 12.9722 41.9378 12.4619C41.9424 12.1203 41.8793 11.7812 41.7523 11.4649C41.6252 11.1485 41.4369 10.8613 41.1984 10.6204C40.96 10.3795 40.6762 10.1897 40.3641 10.0624C40.052 9.93504 39.7179 9.87277 39.3816 9.87924ZM39.3816 14.0449C39.1867 14.0393 38.9948 13.9944 38.8172 13.9128C38.6395 13.8312 38.4795 13.7146 38.3466 13.5697C38.2136 13.4248 38.1103 13.2546 38.0427 13.0688C37.9751 12.883 37.9445 12.6855 37.9526 12.4876C37.9385 12.2878 37.9651 12.0873 38.0306 11.8984C38.0962 11.7096 38.1993 11.5364 38.3336 11.3899C38.468 11.2433 38.6306 11.1264 38.8113 11.0464C38.9921 10.9665 39.1871 10.9253 39.3842 10.9253C39.5814 10.9253 39.7764 10.9665 39.9571 11.0464C40.1379 11.1264 40.3005 11.2433 40.4348 11.3899C40.5691 11.5364 40.6723 11.7096 40.7379 11.8984C40.8034 12.0873 40.83 12.2878 40.8158 12.4876C40.8219 12.6847 40.7895 12.881 40.7205 13.0654C40.6515 13.2497 40.5473 13.4183 40.4139 13.5616C40.2805 13.7048 40.1205 13.8199 39.9432 13.9001C39.7658 13.9803 39.5746 14.024 39.3805 14.0289L39.3816 14.0449ZM32.7656 10.6718V11.7687H35.3428C35.3126 12.2871 35.1047 12.7784 34.755 13.1573C34.498 13.4264 34.1879 13.6372 33.8451 13.776C33.5022 13.9148 33.1343 13.9784 32.7656 13.9626C32.0283 13.9275 31.3328 13.6053 30.8233 13.0629C30.3138 12.5205 30.0295 11.7996 30.0295 11.0499C30.0295 10.3002 30.3138 9.5793 30.8233 9.0369C31.3328 8.4945 32.0283 8.17228 32.7656 8.13715C33.4883 8.12547 34.1863 8.40506 34.7066 8.91473L35.4721 8.14355C35.1122 7.78332 34.6848 7.50008 34.2152 7.31056C33.7456 7.12104 33.2434 7.02911 32.7382 7.04019C32.2132 7.02787 31.691 7.12228 31.2023 7.31787C30.7137 7.51346 30.2685 7.80629 29.8928 8.17915C29.5172 8.55202 29.2187 8.99739 29.0149 9.48909C28.8112 9.9808 28.7062 10.5089 28.7062 11.0424C28.7062 11.5759 28.8112 12.104 29.0149 12.5957C29.2187 13.0875 29.5172 13.5328 29.8928 13.9057C30.2685 14.2785 30.7137 14.5714 31.2023 14.767C31.691 14.9626 32.2132 15.057 32.7382 15.0446C33.246 15.062 33.7518 14.9708 34.2227 14.7771C34.6937 14.5833 35.1193 14.2913 35.4721 13.9199C36.0986 13.2209 36.4321 12.3013 36.4017 11.3564C36.4069 11.1237 36.3885 10.8911 36.347 10.6622L32.7656 10.6718ZM59.8312 11.5263C59.6785 11.0589 59.3882 10.6504 58.9994 10.3562C58.6107 10.0619 58.1423 9.89619 57.6577 9.88138C57.331 9.88354 57.0081 9.95292 56.7085 10.0853C56.4089 10.2178 56.1389 10.4105 55.9146 10.6518C55.6904 10.8932 55.5166 11.1782 55.4038 11.4897C55.2909 11.8012 55.2414 12.1326 55.2582 12.4641C55.2508 12.8037 55.3109 13.1413 55.4349 13.4568C55.5588 13.7722 55.7441 14.0591 55.9797 14.3002C56.2153 14.5413 56.4963 14.7316 56.8059 14.8599C57.1155 14.9882 57.4474 15.0517 57.7818 15.0468C58.2006 15.0485 58.6133 14.9449 58.983 14.7451C59.3527 14.5453 59.668 14.2555 59.9006 13.9018L59.032 13.3111C58.9002 13.5264 58.7158 13.7035 58.4967 13.8251C58.2777 13.9468 58.0314 14.0089 57.7818 14.0054C57.523 14.0151 57.2673 13.9455 57.0479 13.8057C56.8285 13.6659 56.6555 13.4623 56.5515 13.2214L59.9689 11.8328L59.8312 11.5263ZM56.3612 12.3872C56.3454 12.198 56.3678 12.0076 56.4273 11.8277C56.4867 11.6477 56.5819 11.482 56.7068 11.3409C56.8318 11.1997 56.9839 11.0861 57.1538 11.0071C57.3237 10.928 57.5077 10.8851 57.6945 10.8811C57.8878 10.8677 58.0808 10.9125 58.2491 11.01C58.4175 11.1075 58.5537 11.2533 58.6409 11.4291L56.3612 12.3872ZM53.6273 14.8866H54.7051V7.29654H53.6042L53.6273 14.8866ZM51.8072 10.4582H51.7609C51.5881 10.2667 51.3763 10.1159 51.1402 10.0163C50.9041 9.91669 50.6494 9.87064 50.394 9.88138C49.7196 9.88138 49.0729 10.1535 48.5961 10.6378C48.1193 11.1222 47.8514 11.7791 47.8514 12.4641C47.8514 13.1491 48.1193 13.806 48.5961 14.2903C49.0729 14.7747 49.7196 15.0468 50.394 15.0468C50.6506 15.0567 50.9062 15.0088 51.1425 14.9067C51.3788 14.8046 51.5899 14.6508 51.7609 14.4561H51.8019V14.831C51.8309 15.0258 51.8165 15.2247 51.7599 15.4131C51.7033 15.6016 51.6059 15.7747 51.4748 15.9199C51.3437 16.065 51.1822 16.1785 51.0023 16.252C50.8224 16.3255 50.6285 16.3571 50.435 16.3445C50.1544 16.3423 49.8813 16.2525 49.6528 16.0872C49.4242 15.9219 49.2513 15.6892 49.1574 15.4206L48.1869 15.8372C48.3702 16.2893 48.6821 16.6755 49.0828 16.9465C49.4835 17.2175 49.9547 17.3608 50.436 17.3582C50.7781 17.3763 51.12 17.3173 51.437 17.1853C51.754 17.0534 52.0383 16.8517 52.2695 16.5949C52.5007 16.3381 52.673 16.0325 52.7742 15.7C52.8753 15.3675 52.9027 15.0164 52.8545 14.6719V10.0256H51.7798L51.8072 10.4582ZM50.5222 14.0267C50.3283 14.0206 50.1375 13.9753 49.9609 13.8935C49.7844 13.8117 49.6256 13.695 49.4939 13.5503C49.3622 13.4055 49.2601 13.2356 49.1937 13.0504C49.1273 12.8652 49.0978 12.6684 49.1069 12.4716C49.0963 12.2733 49.1247 12.0749 49.1904 11.8879C49.256 11.7009 49.3577 11.5291 49.4895 11.3824C49.6212 11.2358 49.7804 11.1173 49.9577 11.0338C50.135 10.9503 50.3269 10.9035 50.5222 10.8961C50.7151 10.9048 50.9043 10.9529 51.0785 11.0376C51.2527 11.1223 51.4082 11.2418 51.5359 11.389C51.6635 11.5362 51.7605 11.708 51.8213 11.8942C51.882 12.0804 51.9051 12.2771 51.8892 12.4726C51.9048 12.6687 51.8805 12.8659 51.818 13.0521C51.7554 13.2383 51.6559 13.4094 51.5256 13.5549C51.3953 13.7004 51.2369 13.8172 51.0603 13.898C50.8838 13.9788 50.6927 14.0219 50.4991 14.0246L50.5222 14.0267ZM65.0666 7.29761H62.3937V14.8812H63.5083V12.0112H65.0666C65.3806 12.0264 65.6943 11.9767 65.9888 11.8651C66.2833 11.7535 66.5525 11.5824 66.78 11.362C67.0074 11.1417 67.1885 10.8767 67.3123 10.5832C67.436 10.2897 67.4998 9.9737 67.4998 9.6544C67.4998 9.33511 67.436 9.01913 67.3123 8.72561C67.1885 8.43209 67.0074 8.16714 66.78 7.94679C66.5525 7.72645 66.2833 7.5553 65.9888 7.44371C65.6943 7.33213 65.3806 7.28242 65.0666 7.29761ZM65.0666 10.957H63.5083V8.35184H65.0939C65.2698 8.3393 65.4464 8.36366 65.6126 8.42341C65.7788 8.48316 65.9311 8.57703 66.0601 8.69916C66.1891 8.82129 66.2919 8.96908 66.3622 9.13333C66.4325 9.29757 66.4688 9.47476 66.4688 9.65387C66.4688 9.83298 66.4325 10.0102 66.3622 10.1744C66.2919 10.3387 66.1891 10.4864 66.0601 10.6086C65.9311 10.7307 65.7788 10.8246 65.6126 10.8843C65.4464 10.9441 65.2698 10.9684 65.0939 10.9559L65.0666 10.957ZM71.956 9.86642C71.5492 9.84186 71.1442 9.93856 70.7908 10.1446C70.4373 10.3507 70.1509 10.6572 69.9666 11.0264L70.9508 11.4536C71.0816 11.2511 71.2685 11.0923 71.4879 10.9974C71.7074 10.9025 71.9496 10.8756 72.184 10.9201C72.4185 10.9646 72.6347 11.0786 72.8056 11.2476C72.9764 11.4167 73.0942 11.6333 73.1442 11.8702V11.946C72.7866 11.7576 72.3903 11.6577 71.9875 11.6544C70.9213 11.6544 69.8341 12.2515 69.8341 13.3634C69.8434 13.5983 69.8993 13.8289 69.9983 14.0414C70.0973 14.2538 70.2375 14.4439 70.4104 14.6001C70.5834 14.7563 70.7855 14.8755 71.0048 14.9506C71.2241 15.0257 71.4561 15.0552 71.6868 15.0372C71.9762 15.0623 72.2667 15.0058 72.5265 14.8738C72.7862 14.7419 73.0051 14.5397 73.1589 14.2895V14.8866H74.2314V11.9621C74.2388 11.6685 74.1841 11.3767 74.0712 11.1063C73.9582 10.8359 73.7896 10.5933 73.5766 10.3946C73.3636 10.196 73.1112 10.046 72.8364 9.95468C72.5616 9.86339 72.2707 9.83293 71.9833 9.86536L71.956 9.86642ZM71.8193 14.0321C71.4576 14.0321 70.9445 13.8452 70.9445 13.3912C70.9445 12.808 71.5754 12.5794 72.1263 12.5794C72.4843 12.5602 72.8407 12.6395 73.1579 12.8091C73.1174 13.1374 72.9629 13.4403 72.7221 13.6631C72.4813 13.886 72.1701 14.0142 71.8445 14.0246L71.8193 14.0321ZM78.1683 10.0266L76.8917 13.3164H76.8497L75.5248 10.0256H74.3271L76.3166 14.6185L75.2093 17.1873H76.366L79.4006 10.0309L78.1683 10.0266ZM68.1275 14.8866H69.2421V7.29654H68.1275V14.8866Z" fill="#414141"/>
<path d="M8.69039 7.83591C8.51348 8.05927 8.42667 8.34255 8.4475 8.62845V21.1436C8.42848 21.4325 8.52259 21.7173 8.70932 21.9361L8.74823 21.981L15.6324 14.9709V14.8011L8.7293 7.79639L8.69039 7.83591Z" fill="#414141"/>
<path d="M19.0287 17.3069L16.7449 14.9709V14.8011L19.0287 12.4641L19.0792 12.4982L21.8131 14.0716C21.9857 14.1248 22.137 14.233 22.2444 14.3803C22.3519 14.5275 22.4099 14.7059 22.4099 14.8892C22.4099 15.0725 22.3519 15.2509 22.2444 15.3981C22.137 15.5454 21.9857 15.6536 21.8131 15.7068L19.0897 17.2802L19.0287 17.3069Z" fill="#414141"/>
<path d="M18.5387 17.8389L16.1876 15.4517L9.24768 22.5012C9.40532 22.6445 9.60752 22.727 9.81895 22.7342C10.0304 22.7414 10.2376 22.6729 10.4043 22.5407L18.5419 17.841" fill="#414141"/>
<path d="M18.5387 11.9321L10.4012 7.2324C10.2354 7.09847 10.0284 7.02843 9.81668 7.03469C9.60498 7.04094 9.4023 7.12309 9.24451 7.26658L16.1844 14.3161L18.5387 11.9321Z" fill="#414141"/>
<path d="M31.9663 23.9117L31.4679 22.6481H29.8811L29.4164 23.9117H28.9043L30.4763 19.809H30.9337L32.4857 23.9117H31.9663ZM31.3354 22.1898L30.878 20.9466L30.6866 20.3356C30.6319 20.5578 30.5814 20.7628 30.5152 20.9466L30.0578 22.1898H31.3354Z" fill="#414141"/>
<path d="M35.7864 21.0241C35.7975 21.2069 35.7651 21.3897 35.6919 21.557C35.6187 21.7244 35.5068 21.8713 35.3658 21.9854C35.0191 22.2273 34.6027 22.3446 34.1828 22.3186H33.7181V23.9091H33.2102V19.8224H34.2764C35.2817 19.8224 35.7864 20.2251 35.7864 21.0241ZM33.736 21.8786H34.1387C34.4428 21.9033 34.7473 21.8357 35.0135 21.6842C35.1052 21.6087 35.1774 21.5117 35.2237 21.4015C35.2701 21.2913 35.2892 21.1713 35.2796 21.0518C35.2874 20.9402 35.2686 20.8283 35.2246 20.7256C35.1807 20.6229 35.1129 20.5326 35.0272 20.4622C34.7832 20.2994 34.4908 20.2284 34.2007 20.2614H33.6834L33.736 21.8786Z" fill="#414141"/>
<path d="M39.2806 23.4507H39.8V24.9856H39.3153V23.9111H38.9904L37.5509 21.9554L37.1408 22.3239V23.9068H36.635V19.8192H37.1408V21.8251L37.4899 21.4363L38.9252 19.8042H39.5161L37.9168 21.588L39.2806 23.4507Z" fill="#414141"/>
<path d="M43.1752 22.717C43.1847 22.8824 43.157 23.0479 43.0941 23.2008C43.0313 23.3536 42.9349 23.4899 42.8124 23.5993C42.4977 23.8357 42.1086 23.9466 41.7188 23.9112H40.558V19.8224H41.0711V21.5507H41.7146C42.1085 21.5239 42.5005 21.6257 42.8334 21.8412C42.9549 21.9488 43.0492 22.0843 43.1087 22.2365C43.1681 22.3887 43.1909 22.5531 43.1752 22.716V22.717ZM41.0722 23.4733H41.7146C41.9562 23.4847 42.1952 23.419 42.3981 23.2853C42.4762 23.2143 42.5372 23.1261 42.5764 23.0274C42.6156 22.9287 42.632 22.8221 42.6242 22.716C42.6331 22.6121 42.6165 22.5076 42.576 22.4118C42.5354 22.316 42.4722 22.2319 42.3918 22.167C42.1506 22.0374 41.8784 21.9797 41.6063 22.0003H41.0459L41.0722 23.4733ZM44.3055 23.9112H43.7724V19.8224H44.2782L44.3055 23.9112Z" fill="#414141"/>
<path d="M48.4643 23.9112H47.9586V20.2732H46.681L46.599 20.9675C46.5033 21.8284 46.3803 22.5227 46.2982 22.9115C46.2493 23.2123 46.1323 23.4975 45.9565 23.7446C45.8836 23.822 45.7951 23.8825 45.6972 23.9221C45.5992 23.9617 45.494 23.9795 45.3887 23.9742C45.2647 23.9772 45.1414 23.9535 45.027 23.9048V23.4776C45.1226 23.5246 45.2278 23.5484 45.334 23.547C45.4844 23.547 45.5937 23.4573 45.6831 23.2693C45.8191 22.8612 45.9132 22.4399 45.9639 22.0121C46.0596 21.3178 46.1615 20.6236 46.2646 19.8257H48.4654L48.4643 23.9112Z" fill="#414141"/>
<path d="M52.2182 22.717C52.2278 22.8823 52.2002 23.0477 52.1376 23.2006C52.0749 23.3534 51.9788 23.4898 51.8565 23.5993C51.5481 23.827 51.1707 23.9374 50.7903 23.9112H49.6V19.8224H50.1057V21.5507H50.7251C51.114 21.5197 51.5023 21.6171 51.8323 21.8284C51.9632 21.933 52.0666 22.0689 52.1334 22.2239C52.2002 22.379 52.2282 22.5484 52.2151 22.717H52.2182ZM50.1068 23.4733H50.7377C50.9794 23.487 51.219 23.4215 51.4212 23.2863C51.5004 23.216 51.5627 23.1281 51.603 23.0293C51.6433 22.9306 51.6606 22.8237 51.6536 22.717C51.6609 22.6127 51.643 22.5081 51.6014 22.4124C51.5598 22.3167 51.4957 22.2328 51.4149 22.168C51.1763 22.0375 50.9058 21.9796 50.6357 22.0014H50.0679L50.1068 23.4733ZM53.3391 23.9112H52.8281V19.8224H53.3402L53.3391 23.9112Z" fill="#414141"/>
<path d="M56.9804 21.8294L55.3884 19.8224H55.9489L57.5146 21.8284V19.8224H58.0067V21.8284L59.544 19.8492H60.1044L58.5429 21.8294L60.1696 23.9123H59.5944L58.0172 21.8294V23.9123H57.5251V21.8294L55.9478 23.9123H55.3884L56.9804 21.8294Z" fill="#414141"/>
<path d="M62.1623 21.8283L63.2075 19.8149H63.7543L62.3873 22.3218V23.9112H61.8753V22.3485L60.5083 19.8214H61.0614L62.1623 21.8283Z" fill="#414141"/>
<path d="M67.4049 23.9112H66.7971L64.958 21.8284V23.9112H64.4523V19.8224H64.958V21.8284L66.7288 19.8492H67.3092L65.5805 21.8284L67.4049 23.9112Z" fill="#414141"/>
<path d="M69.5921 23.9112H69.059V20.2732H67.8287V19.8224H70.8434V20.2732H69.5921V23.9112Z" fill="#414141"/>
<path d="M73.8422 23.9112H71.5941V19.8224H73.8422V20.2732H72.0988V21.5549H73.7392V21.9993H72.0988V23.4647H73.8422V23.9112Z" fill="#414141"/>
<path d="M77.8211 23.454H78.2996V24.9879H77.8211V23.9112H77.3154V22.0025H75.2649V23.9123H74.7592V19.8224H75.2649V21.5507H77.3154V19.8224H77.8211V23.454Z" fill="#414141"/>
<path d="M80.3772 23.9112H78.9282V23.6132L79.4003 23.5064V20.2315L78.9282 20.1247V19.8224H80.3772V20.1205L79.9051 20.2273V23.5042L80.3772 23.6111V23.9112Z" fill="#414141"/>
<path d="M83.7525 20.7805C83.7565 20.8994 83.736 21.0178 83.6924 21.1281C83.6488 21.2385 83.5829 21.3384 83.4991 21.4214C83.3122 21.6025 83.0722 21.7169 82.8156 21.7472C83.1002 21.7716 83.3701 21.8859 83.5874 22.074C83.6735 22.1581 83.7412 22.2597 83.786 22.3721C83.8307 22.4846 83.8516 22.6054 83.8472 22.7266C83.8552 22.8995 83.821 23.0717 83.7476 23.2279C83.6742 23.3841 83.5639 23.5194 83.4265 23.6217C83.0721 23.8558 82.653 23.9681 82.231 23.9422C81.8278 23.9571 81.4263 23.8813 81.0554 23.72V23.2554C81.2434 23.3429 81.4406 23.4081 81.6432 23.4498C81.8338 23.4953 82.0289 23.5186 82.2247 23.5192C82.5119 23.5378 82.7979 23.4674 83.0449 23.3173C83.1358 23.2501 83.209 23.1611 83.258 23.0583C83.307 22.9554 83.3302 22.8419 83.3256 22.7277C83.328 22.6147 83.2999 22.5032 83.2443 22.4052C83.1887 22.3073 83.1077 22.2267 83.0102 22.1723C82.7215 22.0291 82.4013 21.9643 82.0806 21.9843H81.5065V21.5571H82.0533C82.3643 21.5767 82.6745 21.5068 82.9481 21.3552C83.0391 21.2969 83.1139 21.216 83.1654 21.1201C83.217 21.0242 83.2435 20.9165 83.2425 20.8072C83.2454 20.7175 83.227 20.6284 83.1889 20.5474C83.1509 20.4664 83.0943 20.3958 83.0238 20.3415C82.851 20.216 82.6408 20.1549 82.4287 20.1685C82.2391 20.1636 82.0499 20.1892 81.8682 20.2443C81.6715 20.3061 81.485 20.3975 81.3151 20.5156L81.0691 20.1685C81.4679 19.881 81.9471 19.7313 82.436 19.7413C82.7822 19.7213 83.1254 19.8161 83.4139 20.0115C83.5295 20.1004 83.6212 20.2175 83.6804 20.3519C83.7395 20.4863 83.7644 20.6338 83.7525 20.7805Z" fill="#414141"/>
</svg>
